<svg width="512" height="512" viewBox="0 0 512 512" fill="none" xmlns="http://www.w3.org/2000/svg">
<path d="M512 256C512 114.615 397.385 0 256 0C114.615 0 0 114.615 0 256C0 397.385 114.615 512 256 512C397.385 512 512 397.385 512 256Z" fill="black"/>
<path fill-rule="evenodd" clip-rule="evenodd" d="M155.485 49.2725C154.879 108.22 127.965 125.189 94.687 145.931C72.9976 159.434 49.684 173.986 32.9109 201.434C49.2521 134.506 94.913 78.9624 155.485 49.2725ZM147.24 293.066C123.686 322.232 105.482 361.699 100.764 425.254C85.897 411.56 72.887 395.977 62.066 378.905C65.4844 275.839 104.569 238.248 147.24 209.931V293.066ZM147.24 329.87C139.891 343.058 133.71 358.311 129.12 376.508L147.24 371.462V329.87ZM125.43 393.705C122.879 407.919 121.192 423.747 120.52 441.503C136.547 453.276 154.036 462.918 172.547 470.186C173.884 438.46 178.313 412.293 184.994 390.255L125.43 393.705ZM194.634 364.355L187.94 362.833V280.428C196.977 272.32 206.442 264.795 216.017 257.194L216.026 257.187C217.443 256.062 218.861 254.936 220.28 253.807L246.457 295.056C226.618 313.048 208.183 334.166 194.634 364.355ZM207.329 387.737C221.142 382.813 221.142 370.381 221.142 370.381L215.067 369.001C226.428 345.3 241.269 327.894 257.643 312.682L289.113 362.272C269.584 390.055 255.176 427.659 252.268 486C231.659 485.632 211.718 482.536 192.754 477.085C193.804 440.052 199.083 411.157 207.329 387.737ZM302.361 379.577C286.659 404.069 275.532 436.579 272.919 485.425C295.355 483.838 317.434 478.953 338.447 470.924C339.056 427.117 348.624 398.938 362.277 379.119C349.254 385.865 337.262 389.689 327.168 389.689C314.953 389.689 309.263 386.959 302.361 379.577ZM364.657 375.802V317.498C407.36 283.07 449.852 245.033 454.544 139.175C465.637 157.872 474.004 178.057 479.388 199.12L478.33 199.161C482.401 293.715 449.01 314.072 413.665 335.62L413.632 335.64C396.758 345.921 378.795 356.869 364.657 375.802ZM364.657 290.831V203.084C374.098 184.874 381.651 163.151 386.369 136.294C391.113 132.712 391.96 125.355 390.338 117.998L389.027 118.075C390.745 103.522 391.705 87.604 391.79 70.1182C407.606 81.6515 421.898 95.1417 434.325 110.267C436.349 217.212 403.605 257.711 364.657 290.831ZM368.208 119.294C370.568 101.032 371.631 80.3339 371.141 56.6669C354.855 47.2539 337.469 39.8831 319.38 34.7209C319.755 70.0975 316.595 99.2158 310.827 123.644C312.598 122.968 314.491 122.519 316.459 122.325L368.208 119.294ZM304.946 144.44C296.178 170.737 284.007 190.866 270.067 207.599L298.745 251.577C308.805 242.818 318.43 233.493 327.191 222.723V146.994L304.946 144.44ZM327.191 253.279C321.623 258.797 315.891 263.974 310.079 268.958L327.191 295.198V253.279ZM258.186 189.381C283.225 156.91 300.327 111.096 298.69 29.8565C285.985 27.4939 273.105 26.2038 260.186 26C263.02 84.3195 250.131 120.574 230.099 146.311L258.186 189.381ZM218.107 127.92C233.337 105.541 242.105 74.7641 239.659 26.5758C217.883 28.1321 196.443 32.8004 175.991 40.4386C177.229 86.7416 164.654 113.628 146.73 132.506L217.954 127.687L218.107 127.92ZM120.081 154.147C115.29 157.334 110.418 160.371 105.566 163.393C67.8552 186.882 32.2316 209.075 30 296.654C32.9823 313.324 37.7232 329.417 44.1095 344.647C55.8933 248.279 102.799 213.49 147.24 185.467V159.905L120.527 157.742C120.271 156.594 120.122 155.386 120.081 154.147ZM209.194 236.339C207.211 237.923 205.219 239.504 203.223 241.089C198.128 245.135 193.015 249.196 187.94 253.364V202.847L209.194 236.339ZM359.353 461.68C362.686 390.947 391.316 373.309 424.329 353.194C445.277 340.431 467.769 326.691 482.596 297.958C469.31 369.73 422.653 429.872 359.353 461.68Z" fill="white"/>
</svg>
